# xmcd
#
# Track frame offsets:
#	150
#	14224
#	29887
#	48269
#	62025
#	77024
#	94608
#	110400
#	123870
#	135467
#
# Disc length: 1999 seconds
# Revision: 3
# Processed by: cddbd v1.5.2PL0 Copyright (c) Steve Scherf et al.
# Submitted via: dBpowerAMP V12.0
#
DISCID=8307cd0a
DTITLE=Various Artist - Country Favorites: 80's [Disc 1]
DYEAR=2000
DGENRE=Country
TTITLE0=T. Graham Brown - Hell and High Water
TTITLE1=Lacy J. Dalton - Takin' It Easy
TTITLE2=Jo-El Sonnier - Tear Stained Letter
TTITLE3=Mark Gray - Please Be Love
TTITLE4=Lee Greenwood - Dixie Road
TTITLE5=Judy Rodman - Until I Met You
TTITLE6=Johnny Lee - Lookin' for Love
TTITLE7=Mel McDaniel - Baby's Got Her Blues Jeans On
TTITLE8=Eddy Raven - I'm Gonna Get You
TTITLE9=Lee Greenwood - God Bless the U.S.A.
EXTD=
EXTT0=
EXTT1=
EXTT2=
EXTT3=
EXTT4=
EXTT5=
EXTT6=
EXTT7=
EXTT8=
EXTT9=
PLAYORDER=
